<?xml version="1.0" encoding="utf-8" standalone="no"?>
<!DOCTYPE svg PUBLIC "-//W3C//DTD SVG 1.1//EN"
  "http://www.w3.org/Graphics/SVG/1.1/DTD/svg11.dtd">
<svg xmlns:xlink="http://www.w3.org/1999/xlink" width="216pt" height="288pt" viewBox="0 0 216 288" xmlns="http://www.w3.org/2000/svg" version="1.1">
 <metadata>
  <rdf:RDF xmlns:dc="http://purl.org/dc/elements/1.1/" xmlns:cc="http://creativecommons.org/ns#" xmlns:rdf="http://www.w3.org/1999/02/22-rdf-syntax-ns#">
   <cc:Work>
    <dc:type rdf:resource="http://purl.org/dc/dcmitype/StillImage"/>
    <dc:date>2025-02-10T14:22:46.295086</dc:date>
    <dc:format>image/svg+xml</dc:format>
    <dc:creator>
     <cc:Agent>
      <dc:title>Matplotlib v3.10.0, https://matplotlib.org/</dc:title>
     </cc:Agent>
    </dc:creator>
   </cc:Work>
  </rdf:RDF>
 </metadata>
 <defs>
  <style type="text/css">*{stroke-linejoin: round; stroke-linecap: butt}</style>
 </defs>
 <g id="figure_1">
  <g id="patch_1">
   <path d="M 0 288 
L 216 288 
L 216 0 
L 0 0 
L 0 288 
z
" style="fill: none"/>
  </g>
  <g id="axes_1">
   <g id="patch_2">
    <path d="M 10.8 277.2 
L 205.2 277.2 
L 205.2 10.8 
L 10.8 10.8 
L 10.8 277.2 
z
" style="fill: none"/>
   </g>
   <g id="matplotlib.axis_1"/>
   <g id="matplotlib.axis_2"/>
   <g id="line2d_1">
    <path d="M 19.636364 22.909091 
L 24.065619 46.579625 
L 28.494874 69.033166 
L 32.924129 90.269712 
L 36.910458 108.342074 
L 40.896787 125.428671 
L 44.883117 141.529502 
L 48.869446 156.644568 
L 52.41285 169.252627 
L 55.956254 181.081809 
L 59.499658 192.132115 
L 63.043062 202.403545 
L 66.143541 210.752124 
L 69.244019 218.504376 
L 72.344498 225.660302 
L 75.444976 232.219899 
L 78.102529 237.367784 
L 80.760082 242.077551 
L 83.417635 246.349201 
L 86.075188 250.182732 
L 88.732741 253.578145 
L 90.947368 256.072983 
L 93.161996 258.263572 
L 95.376623 260.149913 
L 97.591251 261.732005 
L 99.805878 263.009849 
L 102.020506 263.983444 
L 103.792208 264.543262 
L 105.56391 264.90836 
L 107.335612 265.078739 
L 109.107314 265.054399 
L 110.879016 264.83534 
L 112.650718 264.421562 
L 114.42242 263.813065 
L 116.194122 263.009849 
L 118.408749 261.732005 
L 120.623377 260.149913 
L 122.838004 258.263572 
L 125.052632 256.072983 
L 127.267259 253.578145 
L 129.481887 250.779059 
L 132.13944 247.018547 
L 134.796992 242.819918 
L 137.454545 238.18317 
L 140.112098 233.108305 
L 142.769651 227.595322 
L 145.87013 220.609776 
L 148.970608 213.027903 
L 152.071087 204.849703 
L 155.171565 196.075176 
L 158.714969 185.316948 
L 162.258373 173.779845 
L 165.801777 161.463865 
L 169.345181 148.369009 
L 173.331511 132.706295 
L 177.31784 116.057816 
L 181.30417 98.423572 
L 185.290499 79.803563 
L 189.276828 60.197789 
L 193.706083 37.257451 
L 196.363636 22.909091 
L 196.363636 22.909091 
" clip-path="url(#p81323ffe22)" style="fill: none; stroke: #000000; stroke-width: 2; stroke-linecap: square"/>
   </g>
   <g id="LineCollection_1">
    <path d="M 64.271341 205.782225 
L 151.728659 205.782225 
" clip-path="url(#p81323ffe22)" style="fill: none; stroke-dasharray: 7.4,3.2; stroke-dashoffset: 0; stroke: #000000; stroke-width: 2"/>
   </g>
   <g id="LineCollection_2">
    <path d="M 60.097654 193.920184 
L 155.902346 193.920184 
" clip-path="url(#p81323ffe22)" style="fill: none; stroke-dasharray: 7.4,3.2; stroke-dashoffset: 0; stroke: #000000; stroke-width: 2"/>
   </g>
   <g id="LineCollection_3">
    <path d="M 53.851747 174.150115 
L 162.148253 174.150115 
" clip-path="url(#p81323ffe22)" style="fill: none; stroke-dasharray: 7.4,3.2; stroke-dashoffset: 0; stroke: #000000; stroke-width: 2"/>
   </g>
   <g id="LineCollection_4">
    <path d="M 52.687135 170.196101 
L 163.312865 170.196101 
" clip-path="url(#p81323ffe22)" style="fill: none; stroke-dasharray: 7.4,3.2; stroke-dashoffset: 0; stroke: #000000; stroke-width: 2"/>
   </g>
   <g id="LineCollection_5">
    <path d="M 36.591398 106.931882 
L 179.408602 106.931882 
" clip-path="url(#p81323ffe22)" style="fill: none; stroke-dasharray: 7.4,3.2; stroke-dashoffset: 0; stroke: #000000; stroke-width: 2"/>
   </g>
   <g id="LineCollection_6">
    <path d="M 28.162756 67.391745 
L 187.837244 67.391745 
" clip-path="url(#p81323ffe22)" style="fill: none; stroke-dasharray: 7.4,3.2; stroke-dashoffset: 0; stroke: #000000; stroke-width: 2"/>
   </g>
  </g>
 </g>
 <defs>
  <clipPath id="p81323ffe22">
   <rect x="10.8" y="10.8" width="194.4" height="266.4"/>
  </clipPath>
 </defs>
</svg>
